<mxfile host="app.diagrams.net" modified="2021-12-11T00:30:02.696Z" agent="5.0 (X11)" etag="rwZ6nH4mGlan0jymN6rY" version="15.9.4" type="github">
  <diagram name="Page-1" id="7e0a89b8-554c-2b80-1dc8-d5c74ca68de4">
    <mxGraphModel dx="1178" dy="1506" grid="1" gridSize="10" guides="1" tooltips="1" connect="1" arrows="1" fold="1" page="1" pageScale="1" pageWidth="1100" pageHeight="850" background="none" math="0" shadow="0">
      <root>
        <mxCell id="0" />
        <mxCell id="1" parent="0" />
        <mxCell id="qp45hYej9-OfJAwmG2fb-3" value="" style="swimlane;startSize=0;" vertex="1" parent="1">
          <mxGeometry x="210" y="360" width="200" height="200" as="geometry" />
        </mxCell>
        <mxCell id="qp45hYej9-OfJAwmG2fb-5" value="Cout" style="text;html=1;strokeColor=none;fillColor=none;align=center;verticalAlign=middle;whiteSpace=wrap;rounded=0;" vertex="1" parent="qp45hYej9-OfJAwmG2fb-3">
          <mxGeometry x="160" y="40" width="40" height="30" as="geometry" />
        </mxCell>
        <mxCell id="qp45hYej9-OfJAwmG2fb-6" value="Sum" style="text;html=1;strokeColor=none;fillColor=none;align=center;verticalAlign=middle;whiteSpace=wrap;rounded=0;" vertex="1" parent="qp45hYej9-OfJAwmG2fb-3">
          <mxGeometry x="160" y="110" width="40" height="30" as="geometry" />
        </mxCell>
        <mxCell id="qp45hYej9-OfJAwmG2fb-7" value="A" style="text;html=1;strokeColor=none;fillColor=none;align=center;verticalAlign=middle;whiteSpace=wrap;rounded=0;" vertex="1" parent="qp45hYej9-OfJAwmG2fb-3">
          <mxGeometry y="50" width="40" height="30" as="geometry" />
        </mxCell>
        <mxCell id="qp45hYej9-OfJAwmG2fb-8" value="B" style="text;html=1;strokeColor=none;fillColor=none;align=center;verticalAlign=middle;whiteSpace=wrap;rounded=0;" vertex="1" parent="qp45hYej9-OfJAwmG2fb-3">
          <mxGeometry y="100" width="40" height="30" as="geometry" />
        </mxCell>
        <mxCell id="qp45hYej9-OfJAwmG2fb-9" value="&lt;div&gt;Half Adder&lt;/div&gt;" style="text;html=1;strokeColor=none;fillColor=none;align=center;verticalAlign=middle;whiteSpace=wrap;rounded=0;" vertex="1" parent="qp45hYej9-OfJAwmG2fb-3">
          <mxGeometry x="70" width="60" height="30" as="geometry" />
        </mxCell>
        <mxCell id="qp45hYej9-OfJAwmG2fb-10" value="&lt;div&gt;CLK&lt;/div&gt;" style="text;html=1;strokeColor=none;fillColor=none;align=center;verticalAlign=middle;whiteSpace=wrap;rounded=0;" vertex="1" parent="qp45hYej9-OfJAwmG2fb-3">
          <mxGeometry x="70" y="170" width="60" height="30" as="geometry" />
        </mxCell>
        <mxCell id="qp45hYej9-OfJAwmG2fb-11" value="" style="swimlane;startSize=0;" vertex="1" parent="1">
          <mxGeometry x="590" y="450" width="200" height="200" as="geometry" />
        </mxCell>
        <mxCell id="qp45hYej9-OfJAwmG2fb-12" value="&lt;div&gt;Cout&lt;/div&gt;" style="text;html=1;strokeColor=none;fillColor=none;align=center;verticalAlign=middle;whiteSpace=wrap;rounded=0;" vertex="1" parent="qp45hYej9-OfJAwmG2fb-11">
          <mxGeometry x="160" y="50" width="40" height="30" as="geometry" />
        </mxCell>
        <mxCell id="qp45hYej9-OfJAwmG2fb-13" value="&lt;div&gt;Sum&lt;/div&gt;" style="text;html=1;strokeColor=none;fillColor=none;align=center;verticalAlign=middle;whiteSpace=wrap;rounded=0;" vertex="1" parent="qp45hYej9-OfJAwmG2fb-11">
          <mxGeometry x="160" y="100" width="40" height="30" as="geometry" />
        </mxCell>
        <mxCell id="qp45hYej9-OfJAwmG2fb-14" value="A" style="text;html=1;strokeColor=none;fillColor=none;align=center;verticalAlign=middle;whiteSpace=wrap;rounded=0;" vertex="1" parent="qp45hYej9-OfJAwmG2fb-11">
          <mxGeometry y="40" width="40" height="30" as="geometry" />
        </mxCell>
        <mxCell id="qp45hYej9-OfJAwmG2fb-15" value="B" style="text;html=1;strokeColor=none;fillColor=none;align=center;verticalAlign=middle;whiteSpace=wrap;rounded=0;" vertex="1" parent="qp45hYej9-OfJAwmG2fb-11">
          <mxGeometry y="110" width="40" height="30" as="geometry" />
        </mxCell>
        <mxCell id="qp45hYej9-OfJAwmG2fb-16" value="&lt;div&gt;Half Adder&lt;/div&gt;" style="text;html=1;strokeColor=none;fillColor=none;align=center;verticalAlign=middle;whiteSpace=wrap;rounded=0;" vertex="1" parent="qp45hYej9-OfJAwmG2fb-11">
          <mxGeometry x="70" width="60" height="30" as="geometry" />
        </mxCell>
        <mxCell id="qp45hYej9-OfJAwmG2fb-17" value="&lt;div&gt;CLK&lt;/div&gt;" style="text;html=1;strokeColor=none;fillColor=none;align=center;verticalAlign=middle;whiteSpace=wrap;rounded=0;" vertex="1" parent="qp45hYej9-OfJAwmG2fb-11">
          <mxGeometry x="70" y="170" width="60" height="30" as="geometry" />
        </mxCell>
        <mxCell id="qp45hYej9-OfJAwmG2fb-18" value="" style="pointerEvents=1;verticalLabelPosition=bottom;shadow=0;dashed=0;align=center;html=1;verticalAlign=top;shape=mxgraph.electrical.capacitors.capacitor_1;rotation=90;" vertex="1" parent="1">
          <mxGeometry x="475" y="590" width="70" height="60" as="geometry" />
        </mxCell>
        <mxCell id="qp45hYej9-OfJAwmG2fb-21" value="" style="pointerEvents=1;verticalLabelPosition=bottom;shadow=0;dashed=0;align=center;html=1;verticalAlign=top;shape=mxgraph.electrical.signal_sources.signal_ground;" vertex="1" parent="1">
          <mxGeometry x="487.5" y="700" width="45" height="30" as="geometry" />
        </mxCell>
        <mxCell id="qp45hYej9-OfJAwmG2fb-23" value="" style="endArrow=none;html=1;rounded=0;entryX=1;entryY=0.5;entryDx=0;entryDy=0;entryPerimeter=0;" edge="1" parent="1" target="qp45hYej9-OfJAwmG2fb-18">
          <mxGeometry width="50" height="50" relative="1" as="geometry">
            <mxPoint x="510" y="700" as="sourcePoint" />
            <mxPoint x="530" y="620" as="targetPoint" />
          </mxGeometry>
        </mxCell>
        <mxCell id="qp45hYej9-OfJAwmG2fb-26" style="edgeStyle=orthogonalEdgeStyle;rounded=0;orthogonalLoop=1;jettySize=auto;html=1;entryX=-0.025;entryY=0.667;entryDx=0;entryDy=0;entryPerimeter=0;" edge="1" parent="1" source="qp45hYej9-OfJAwmG2fb-6" target="qp45hYej9-OfJAwmG2fb-14">
          <mxGeometry relative="1" as="geometry">
            <mxPoint x="540" y="420" as="targetPoint" />
          </mxGeometry>
        </mxCell>
        <mxCell id="qp45hYej9-OfJAwmG2fb-28" value="" style="endArrow=none;html=1;rounded=0;exitX=0;exitY=0.5;exitDx=0;exitDy=0;exitPerimeter=0;" edge="1" parent="1" source="qp45hYej9-OfJAwmG2fb-18">
          <mxGeometry width="50" height="50" relative="1" as="geometry">
            <mxPoint x="510" y="570" as="sourcePoint" />
            <mxPoint x="510" y="510" as="targetPoint" />
          </mxGeometry>
        </mxCell>
        <mxCell id="qp45hYej9-OfJAwmG2fb-29" value="" style="endArrow=classic;html=1;rounded=0;" edge="1" parent="1">
          <mxGeometry width="50" height="50" relative="1" as="geometry">
            <mxPoint x="540" y="570" as="sourcePoint" />
            <mxPoint x="600" y="570" as="targetPoint" />
          </mxGeometry>
        </mxCell>
        <mxCell id="qp45hYej9-OfJAwmG2fb-30" value="Cin" style="text;html=1;strokeColor=none;fillColor=none;align=center;verticalAlign=middle;whiteSpace=wrap;rounded=0;" vertex="1" parent="1">
          <mxGeometry x="520" y="550" width="60" height="30" as="geometry" />
        </mxCell>
        <mxCell id="qp45hYej9-OfJAwmG2fb-31" value="&lt;div&gt;CLK&lt;/div&gt;" style="text;html=1;strokeColor=none;fillColor=none;align=center;verticalAlign=middle;whiteSpace=wrap;rounded=0;" vertex="1" parent="1">
          <mxGeometry x="280" y="590" width="60" height="30" as="geometry" />
        </mxCell>
        <mxCell id="qp45hYej9-OfJAwmG2fb-32" value="" style="endArrow=classic;html=1;rounded=0;entryX=0.5;entryY=1;entryDx=0;entryDy=0;" edge="1" parent="1" target="qp45hYej9-OfJAwmG2fb-10">
          <mxGeometry width="50" height="50" relative="1" as="geometry">
            <mxPoint x="310" y="600" as="sourcePoint" />
            <mxPoint x="470" y="520" as="targetPoint" />
          </mxGeometry>
        </mxCell>
        <mxCell id="qp45hYej9-OfJAwmG2fb-33" value="&lt;div&gt;CLK&lt;/div&gt;" style="text;html=1;strokeColor=none;fillColor=none;align=center;verticalAlign=middle;whiteSpace=wrap;rounded=0;" vertex="1" parent="1">
          <mxGeometry x="660" y="680" width="60" height="30" as="geometry" />
        </mxCell>
        <mxCell id="qp45hYej9-OfJAwmG2fb-34" value="" style="endArrow=classic;html=1;rounded=0;entryX=0.5;entryY=1;entryDx=0;entryDy=0;" edge="1" parent="1">
          <mxGeometry width="50" height="50" relative="1" as="geometry">
            <mxPoint x="690" y="690" as="sourcePoint" />
            <mxPoint x="690" y="650" as="targetPoint" />
          </mxGeometry>
        </mxCell>
        <mxCell id="qp45hYej9-OfJAwmG2fb-40" style="edgeStyle=orthogonalEdgeStyle;rounded=0;orthogonalLoop=1;jettySize=auto;html=1;entryX=1;entryY=1;entryDx=0;entryDy=0;entryPerimeter=0;exitX=1;exitY=0;exitDx=0;exitDy=0;exitPerimeter=0;" edge="1" parent="1" source="qp45hYej9-OfJAwmG2fb-36" target="qp45hYej9-OfJAwmG2fb-38">
          <mxGeometry relative="1" as="geometry" />
        </mxCell>
        <mxCell id="qp45hYej9-OfJAwmG2fb-42" style="edgeStyle=orthogonalEdgeStyle;rounded=0;orthogonalLoop=1;jettySize=auto;html=1;exitX=1;exitY=1;exitDx=0;exitDy=0;exitPerimeter=0;entryX=0.5;entryY=0;entryDx=0;entryDy=0;entryPerimeter=0;" edge="1" parent="1" source="qp45hYej9-OfJAwmG2fb-36" target="qp45hYej9-OfJAwmG2fb-43">
          <mxGeometry relative="1" as="geometry">
            <mxPoint x="1020.0689655172414" y="630" as="targetPoint" />
          </mxGeometry>
        </mxCell>
        <mxCell id="qp45hYej9-OfJAwmG2fb-36" value="" style="verticalLabelPosition=bottom;shadow=0;dashed=0;align=center;html=1;verticalAlign=top;shape=mxgraph.electrical.transistors.nmos;pointerEvents=1;" vertex="1" parent="1">
          <mxGeometry x="960" y="470" width="60" height="100" as="geometry" />
        </mxCell>
        <mxCell id="qp45hYej9-OfJAwmG2fb-53" style="edgeStyle=orthogonalEdgeStyle;rounded=0;orthogonalLoop=1;jettySize=auto;html=1;entryX=0;entryY=0.5;entryDx=0;entryDy=0;entryPerimeter=0;exitX=1;exitY=0;exitDx=0;exitDy=0;exitPerimeter=0;" edge="1" parent="1" source="qp45hYej9-OfJAwmG2fb-37" target="qp45hYej9-OfJAwmG2fb-52">
          <mxGeometry relative="1" as="geometry">
            <Array as="points">
              <mxPoint x="1020" y="283" />
              <mxPoint x="1020" y="200" />
            </Array>
          </mxGeometry>
        </mxCell>
        <mxCell id="qp45hYej9-OfJAwmG2fb-37" value="" style="verticalLabelPosition=bottom;shadow=0;dashed=0;align=center;html=1;verticalAlign=top;shape=mxgraph.electrical.transistors.nmos;pointerEvents=1;" vertex="1" parent="1">
          <mxGeometry x="1020" y="280" width="60" height="100" as="geometry" />
        </mxCell>
        <mxCell id="qp45hYej9-OfJAwmG2fb-54" style="edgeStyle=orthogonalEdgeStyle;rounded=0;orthogonalLoop=1;jettySize=auto;html=1;entryX=0;entryY=0.5;entryDx=0;entryDy=0;entryPerimeter=0;exitX=1;exitY=0;exitDx=0;exitDy=0;exitPerimeter=0;" edge="1" parent="1" source="qp45hYej9-OfJAwmG2fb-38" target="qp45hYej9-OfJAwmG2fb-52">
          <mxGeometry relative="1" as="geometry">
            <Array as="points">
              <mxPoint x="1020" y="283" />
              <mxPoint x="1020" y="200" />
            </Array>
          </mxGeometry>
        </mxCell>
        <mxCell id="qp45hYej9-OfJAwmG2fb-38" value="" style="verticalLabelPosition=bottom;shadow=0;dashed=0;align=center;html=1;verticalAlign=top;shape=mxgraph.electrical.transistors.nmos;pointerEvents=1;" vertex="1" parent="1">
          <mxGeometry x="920" y="280" width="60" height="100" as="geometry" />
        </mxCell>
        <mxCell id="qp45hYej9-OfJAwmG2fb-55" style="edgeStyle=orthogonalEdgeStyle;rounded=0;orthogonalLoop=1;jettySize=auto;html=1;entryX=0;entryY=0.5;entryDx=0;entryDy=0;entryPerimeter=0;exitX=1;exitY=1;exitDx=0;exitDy=0;exitPerimeter=0;" edge="1" parent="1" source="qp45hYej9-OfJAwmG2fb-39" target="qp45hYej9-OfJAwmG2fb-52">
          <mxGeometry relative="1" as="geometry" />
        </mxCell>
        <mxCell id="qp45hYej9-OfJAwmG2fb-39" value="" style="verticalLabelPosition=bottom;shadow=0;dashed=0;align=center;html=1;verticalAlign=top;shape=mxgraph.electrical.transistors.pmos;pointerEvents=1;" vertex="1" parent="1">
          <mxGeometry x="960" y="50" width="60" height="100" as="geometry" />
        </mxCell>
        <mxCell id="qp45hYej9-OfJAwmG2fb-41" value="" style="endArrow=classic;html=1;rounded=0;entryX=1;entryY=1;entryDx=0;entryDy=0;entryPerimeter=0;" edge="1" parent="1" target="qp45hYej9-OfJAwmG2fb-37">
          <mxGeometry width="50" height="50" relative="1" as="geometry">
            <mxPoint x="1020" y="460" as="sourcePoint" />
            <mxPoint x="1050" y="410" as="targetPoint" />
            <Array as="points">
              <mxPoint x="1020" y="430" />
              <mxPoint x="1080" y="430" />
            </Array>
          </mxGeometry>
        </mxCell>
        <mxCell id="qp45hYej9-OfJAwmG2fb-43" value="" style="pointerEvents=1;verticalLabelPosition=bottom;shadow=0;dashed=0;align=center;html=1;verticalAlign=top;shape=mxgraph.electrical.signal_sources.signal_ground;" vertex="1" parent="1">
          <mxGeometry x="1000" y="630" width="45" height="30" as="geometry" />
        </mxCell>
        <mxCell id="qp45hYej9-OfJAwmG2fb-44" value="" style="endArrow=classic;html=1;rounded=0;entryX=0;entryY=0.5;entryDx=0;entryDy=0;entryPerimeter=0;" edge="1" parent="1" target="qp45hYej9-OfJAwmG2fb-36">
          <mxGeometry width="50" height="50" relative="1" as="geometry">
            <mxPoint x="920" y="520" as="sourcePoint" />
            <mxPoint x="940" y="510" as="targetPoint" />
          </mxGeometry>
        </mxCell>
        <mxCell id="qp45hYej9-OfJAwmG2fb-45" value="" style="endArrow=classic;html=1;rounded=0;entryX=0;entryY=0.5;entryDx=0;entryDy=0;entryPerimeter=0;" edge="1" parent="1">
          <mxGeometry width="50" height="50" relative="1" as="geometry">
            <mxPoint x="920" y="99.66000000000003" as="sourcePoint" />
            <mxPoint x="960" y="99.66000000000003" as="targetPoint" />
          </mxGeometry>
        </mxCell>
        <mxCell id="qp45hYej9-OfJAwmG2fb-47" value="CLK" style="text;html=1;strokeColor=none;fillColor=none;align=center;verticalAlign=middle;whiteSpace=wrap;rounded=0;" vertex="1" parent="1">
          <mxGeometry x="900" y="70" width="60" height="30" as="geometry" />
        </mxCell>
        <mxCell id="qp45hYej9-OfJAwmG2fb-48" value="CLK" style="text;html=1;strokeColor=none;fillColor=none;align=center;verticalAlign=middle;whiteSpace=wrap;rounded=0;" vertex="1" parent="1">
          <mxGeometry x="900" y="490" width="60" height="30" as="geometry" />
        </mxCell>
        <mxCell id="qp45hYej9-OfJAwmG2fb-49" style="edgeStyle=orthogonalEdgeStyle;rounded=0;orthogonalLoop=1;jettySize=auto;html=1;entryX=0;entryY=0.5;entryDx=0;entryDy=0;entryPerimeter=0;" edge="1" parent="1" source="qp45hYej9-OfJAwmG2fb-12" target="qp45hYej9-OfJAwmG2fb-37">
          <mxGeometry relative="1" as="geometry">
            <mxPoint x="990" y="370" as="targetPoint" />
            <Array as="points">
              <mxPoint x="830" y="515" />
              <mxPoint x="830" y="480" />
              <mxPoint x="990" y="480" />
              <mxPoint x="990" y="330" />
            </Array>
          </mxGeometry>
        </mxCell>
        <mxCell id="qp45hYej9-OfJAwmG2fb-50" style="edgeStyle=orthogonalEdgeStyle;rounded=0;orthogonalLoop=1;jettySize=auto;html=1;entryX=0;entryY=0.5;entryDx=0;entryDy=0;entryPerimeter=0;" edge="1" parent="1" source="qp45hYej9-OfJAwmG2fb-5" target="qp45hYej9-OfJAwmG2fb-38">
          <mxGeometry relative="1" as="geometry" />
        </mxCell>
        <mxCell id="qp45hYej9-OfJAwmG2fb-60" style="edgeStyle=orthogonalEdgeStyle;rounded=0;orthogonalLoop=1;jettySize=auto;html=1;" edge="1" parent="1" source="qp45hYej9-OfJAwmG2fb-52">
          <mxGeometry relative="1" as="geometry">
            <mxPoint x="1370" y="200" as="targetPoint" />
          </mxGeometry>
        </mxCell>
        <mxCell id="qp45hYej9-OfJAwmG2fb-52" value="" style="verticalLabelPosition=bottom;shadow=0;dashed=0;align=center;html=1;verticalAlign=top;shape=mxgraph.electrical.logic_gates.inverter_2" vertex="1" parent="1">
          <mxGeometry x="1180" y="170" width="100" height="60" as="geometry" />
        </mxCell>
        <mxCell id="qp45hYej9-OfJAwmG2fb-57" style="edgeStyle=orthogonalEdgeStyle;rounded=0;orthogonalLoop=1;jettySize=auto;html=1;entryX=1;entryY=0;entryDx=0;entryDy=0;entryPerimeter=0;" edge="1" parent="1" source="qp45hYej9-OfJAwmG2fb-56" target="qp45hYej9-OfJAwmG2fb-39">
          <mxGeometry relative="1" as="geometry" />
        </mxCell>
        <mxCell id="qp45hYej9-OfJAwmG2fb-56" value="V&lt;sub&gt;dd&lt;/sub&gt;" style="verticalLabelPosition=top;verticalAlign=bottom;shape=mxgraph.electrical.signal_sources.vdd;shadow=0;dashed=0;align=center;strokeWidth=1;fontSize=24;html=1;flipV=1;" vertex="1" parent="1">
          <mxGeometry x="992.5" y="-20" width="60" height="40" as="geometry" />
        </mxCell>
        <mxCell id="qp45hYej9-OfJAwmG2fb-61" value="Cout" style="text;html=1;align=center;verticalAlign=middle;resizable=0;points=[];autosize=1;strokeColor=none;fillColor=none;" vertex="1" parent="1">
          <mxGeometry x="1290" y="180" width="40" height="20" as="geometry" />
        </mxCell>
        <mxCell id="qp45hYej9-OfJAwmG2fb-62" style="edgeStyle=orthogonalEdgeStyle;rounded=0;orthogonalLoop=1;jettySize=auto;html=1;" edge="1" parent="1" source="qp45hYej9-OfJAwmG2fb-13">
          <mxGeometry relative="1" as="geometry">
            <mxPoint x="870" y="565.0000000000002" as="targetPoint" />
          </mxGeometry>
        </mxCell>
        <mxCell id="qp45hYej9-OfJAwmG2fb-63" value="Sum" style="text;html=1;align=center;verticalAlign=middle;resizable=0;points=[];autosize=1;strokeColor=none;fillColor=none;" vertex="1" parent="1">
          <mxGeometry x="820" y="540" width="40" height="20" as="geometry" />
        </mxCell>
        <mxCell id="qp45hYej9-OfJAwmG2fb-64" value="" style="endArrow=classic;html=1;rounded=0;entryX=0;entryY=0.5;entryDx=0;entryDy=0;" edge="1" parent="1" target="qp45hYej9-OfJAwmG2fb-7">
          <mxGeometry width="50" height="50" relative="1" as="geometry">
            <mxPoint x="110" y="425" as="sourcePoint" />
            <mxPoint x="150" y="420" as="targetPoint" />
          </mxGeometry>
        </mxCell>
        <mxCell id="qp45hYej9-OfJAwmG2fb-65" value="" style="endArrow=classic;html=1;rounded=0;entryX=0;entryY=0.5;entryDx=0;entryDy=0;" edge="1" parent="1">
          <mxGeometry width="50" height="50" relative="1" as="geometry">
            <mxPoint x="110" y="470" as="sourcePoint" />
            <mxPoint x="210" y="470" as="targetPoint" />
          </mxGeometry>
        </mxCell>
        <mxCell id="qp45hYej9-OfJAwmG2fb-66" value="A" style="text;html=1;align=center;verticalAlign=middle;resizable=0;points=[];autosize=1;strokeColor=none;fillColor=none;" vertex="1" parent="1">
          <mxGeometry x="120" y="400" width="20" height="20" as="geometry" />
        </mxCell>
        <mxCell id="qp45hYej9-OfJAwmG2fb-67" value="B" style="text;html=1;align=center;verticalAlign=middle;resizable=0;points=[];autosize=1;strokeColor=none;fillColor=none;" vertex="1" parent="1">
          <mxGeometry x="120" y="450" width="20" height="20" as="geometry" />
        </mxCell>
      </root>
    </mxGraphModel>
  </diagram>
</mxfile>
